<svg width="32" height="32" viewBox="0 0 32 32" fill="none" xmlns="http://www.w3.org/2000/svg">
<g clip-path="url(#clip0_1165_243)">
<path d="M16.484 19.9293C16.484 17.4653 15.312 15.644 12.8907 14.9613C14.6573 14.12 15.5787 12.8453 15.5787 10.8627C15.5787 6.95333 12.656 6 9.284 6H0V25.628H9.544C13.1227 25.628 16.484 23.9173 16.484 19.9293ZM4.328 9.35067H8.38933C9.95067 9.35067 11.356 9.788 11.356 11.5933C11.356 13.26 10.2627 13.9307 8.716 13.9307H4.328V9.35067ZM4.32667 22.2947V16.8893H9.044C10.9493 16.8893 12.1547 17.6813 12.1547 19.692C12.1547 21.6747 10.716 22.2947 8.95467 22.2947H4.32667Z" fill="white"/>
<path d="M25.0614 26C28.4667 26 30.672 24.4707 31.7334 21.22H28.2774C27.9054 22.4333 26.372 23.0747 25.1827 23.0747C22.888 23.0747 21.6827 21.7347 21.6827 19.4573H31.9667C32.292 14.9 29.7534 11.016 25.06 11.016C20.7147 11.016 17.7654 14.272 17.7654 18.5373C17.7654 22.964 20.56 26 25.0614 26V26ZM24.9387 13.9653C26.9054 13.9653 27.8947 15.1173 28.06 17.0013H21.688C21.8174 15.1333 23.0614 13.9653 24.9387 13.9653Z" fill="white"/>
<path d="M20.8894 7.03064H28.8734V8.96397H20.8894V7.03064Z" fill="white"/>
</g>
<defs>
<clipPath id="clip0_1165_243">
<rect width="32" height="32" fill="white"/>
</clipPath>
</defs>
</svg>
