<svg width="20" height="20" viewBox="0 0 20 20" fill="none" xmlns="http://www.w3.org/2000/svg">
<g clip-path="url(#clip0_1051_234)">
<path d="M10.3025 12.4558C10.3025 10.9158 9.57 9.7775 8.05667 9.35083C9.16083 8.825 9.73667 8.02833 9.73667 6.78917C9.73667 4.34583 7.91 3.75 5.8025 3.75H0V16.0175H5.965C8.20167 16.0175 10.3025 14.9483 10.3025 12.4558ZM2.705 5.84417H5.24333C6.21917 5.84417 7.0975 6.1175 7.0975 7.24583C7.0975 8.2875 6.41417 8.70667 5.4475 8.70667H2.705V5.84417ZM2.70417 13.9342V10.5558H5.6525C6.84333 10.5558 7.59667 11.0508 7.59667 12.3075C7.59667 13.5467 6.6975 13.9342 5.59667 13.9342H2.70417Z" fill="#333333"/>
<path d="M15.6634 16.2498C17.7917 16.2498 19.1701 15.2939 19.8334 13.2623H17.6734C17.4409 14.0206 16.4826 14.4214 15.7392 14.4214C14.3051 14.4214 13.5517 13.5839 13.5517 12.1606H19.9792C20.1826 9.31227 18.5959 6.88477 15.6626 6.88477C12.9467 6.88477 11.1034 8.91977 11.1034 11.5856C11.1034 14.3523 12.8501 16.2498 15.6634 16.2498V16.2498ZM15.5867 8.7281C16.8159 8.7281 17.4342 9.4481 17.5376 10.6256H13.5551C13.6359 9.4581 14.4134 8.7281 15.5867 8.7281Z" fill="#333333"/>
<path d="M13.0558 4.39404H18.0458V5.60238H13.0558V4.39404Z" fill="#333333"/>
</g>
<defs>
<clipPath id="clip0_1051_234">
<rect width="20" height="20" fill="white"/>
</clipPath>
</defs>
</svg>
