<svg width="32" height="32" viewBox="0 0 32 32" fill="none" xmlns="http://www.w3.org/2000/svg">
<g clip-path="url(#clip0_1051_262)">
<path d="M16.5127 31.7885L23.7853 24.5159C24.0904 24.2547 24.1259 23.7956 23.8646 23.4905C23.6034 23.1855 23.1443 23.1499 22.8392 23.4112C22.8108 23.4356 22.7842 23.4621 22.7599 23.4905L16.7236 29.5195L16.7236 0.727237C16.7236 0.325619 16.398 -3.34022e-07 15.9963 -3.5158e-07C15.5947 -3.69138e-07 15.2691 0.325619 15.2691 0.727237L15.2691 29.5195L9.24015 23.4905C8.9789 23.1855 8.51978 23.1499 8.21473 23.4112C7.90967 23.6725 7.87411 24.1316 8.13542 24.4366C8.15979 24.4651 8.18629 24.4916 8.21473 24.5159L15.4873 31.7886C15.7709 32.0705 16.229 32.0705 16.5127 31.7885Z" fill="#333333"/>
</g>
<defs>
<clipPath id="clip0_1051_262">
<rect width="32" height="32" fill="white" transform="translate(32) rotate(90)"/>
</clipPath>
</defs>
</svg>
