<svg width="32" height="32" viewBox="0 0 32 32" fill="none" xmlns="http://www.w3.org/2000/svg">
<g clip-path="url(#clip0_1165_249)">
<path d="M16 0C7.178 0 0 7.178 0 16C0 24.822 7.178 32 16 32C24.822 32 32 24.822 32 16C32 7.178 24.822 0 16 0ZM16 30C8.28 30 2 23.718 2 16C2 8.28 8.28 2 16 2C23.718 2 30 8.28 30 16C30 23.718 23.718 30 16 30Z" fill="white"/>
<path d="M16 4C15.16 4 14.34 4.088 13.548 4.252C15.004 6.316 16.326 8.464 17.49 10.69C19.692 9.664 21.764 8.34 23.656 6.76C21.578 5.036 18.91 4 16 4Z" fill="white"/>
<path d="M25.082 8.172C23.024 9.906 20.76 11.344 18.356 12.468C18.882 13.564 19.37 14.674 19.822 15.802C22.478 15.256 25.242 15.206 27.982 15.66C27.902 12.8 26.826 10.192 25.082 8.172Z" fill="white"/>
<path d="M11.54 4.86603C7.93799 6.31003 5.20599 9.44603 4.31799 13.296C8.20199 13.462 12.046 12.814 15.624 11.448C14.422 9.16603 13.06 6.96603 11.54 4.86603Z" fill="white"/>
<path d="M16.52 13.258C13.056 14.608 9.356 15.344 5.594 15.344C5.076 15.344 4.556 15.312 4.036 15.284C4.022 15.522 4 15.758 4 16C4 18.946 5.066 21.642 6.828 23.73C9.71 20.152 13.584 17.588 17.872 16.3C17.454 15.272 17.002 14.26 16.52 13.258Z" fill="white"/>
<path d="M20.556 17.696C21.51 20.356 22.258 23.09 22.806 25.878C25.51 24.012 27.398 21.066 27.872 17.662C25.42 17.228 22.942 17.248 20.556 17.696Z" fill="white"/>
<path d="M18.592 18.16C14.56 19.338 10.918 21.758 8.24805 25.152C10.34 26.926 13.042 28 16 28C17.776 28 19.458 27.604 20.974 26.91C20.424 23.922 19.624 20.998 18.592 18.16Z" fill="white"/>
</g>
<defs>
<clipPath id="clip0_1165_249">
<rect width="32" height="32" fill="white"/>
</clipPath>
</defs>
</svg>
