<svg width="81" height="81" viewBox="0 0 81 81" fill="none" xmlns="http://www.w3.org/2000/svg">
<path d="M27.8555 40.8203H15.6484V31.0547C15.6484 25.6683 20.0277 21.2891 25.4141 21.2891H26.6347C28.6641 21.2891 30.2969 19.6564 30.2969 17.6269V10.3028C30.2969 8.27344 28.6642 6.64062 26.6347 6.64062H25.4141C11.9253 6.64062 1 17.5659 1 31.0547V67.6758C1 71.7194 4.28063 75 8.32422 75H27.8555C31.8991 75 35.1797 71.7194 35.1797 67.6758V48.1445C35.1797 44.1009 31.8991 40.8203 27.8555 40.8203Z" fill="#333333"/>
<path d="M71.8008 40.8203H59.5938V31.0547C59.5938 25.6683 63.973 21.2891 69.3594 21.2891H70.58C72.6094 21.2891 74.2422 19.6564 74.2422 17.6269V10.3028C74.2422 8.27344 72.6095 6.64062 70.58 6.64062H69.3594C55.8706 6.64062 44.9453 17.5659 44.9453 31.0547V67.6758C44.9453 71.7194 48.2259 75 52.2695 75H71.8008C75.8444 75 79.125 71.7194 79.125 67.6758V48.1445C79.125 44.1009 75.8444 40.8203 71.8008 40.8203Z" fill="#333333"/>
</svg>
