<svg width="81" height="82" viewBox="0 0 81 82" fill="none" xmlns="http://www.w3.org/2000/svg">
<path d="M52.2695 40.8594H64.4766V50.625C64.4766 56.0114 60.0973 60.3906 54.7109 60.3906H53.4903C51.4609 60.3906 49.8281 62.0233 49.8281 64.0528V71.3769C49.8281 73.4063 51.4608 75.0391 53.4903 75.0391H54.7109C68.1997 75.0391 79.125 64.1138 79.125 50.625V14.0039C79.125 9.96031 75.8444 6.67969 71.8008 6.67969H52.2695C48.2259 6.67969 44.9453 9.96031 44.9453 14.0039V33.5352C44.9453 37.5787 48.2259 40.8594 52.2695 40.8594Z" fill="#333333"/>
<path d="M8.32422 40.8594H20.5312V50.625C20.5312 56.0114 16.152 60.3906 10.7656 60.3906H9.545C7.51562 60.3906 5.88281 62.0233 5.88281 64.0528V71.3769C5.88281 73.4063 7.51547 75.0391 9.545 75.0391H10.7656C24.2544 75.0391 35.1797 64.1138 35.1797 50.625V14.0039C35.1797 9.96031 31.8991 6.67969 27.8555 6.67969H8.32422C4.28063 6.67969 1 9.96031 1 14.0039V33.5352C1 37.5787 4.28063 40.8594 8.32422 40.8594Z" fill="#333333"/>
</svg>
